<svg id="Layer_1" data-name="Layer 1" xmlns="http://www.w3.org/2000/svg" viewBox="0 0 210 60"><defs><style>.cls-1{fill:#010101;}.cls-2{fill:#050504;}.cls-3{fill:#060605;}.cls-4{fill:#050505;}.cls-5{fill:#cac6b9;}.cls-6{fill:#7d7864;}.cls-7{fill:#aaa68c;}.cls-8{fill:#f9f9f7;}.cls-9{fill:#e9e8e8;}.cls-10{fill:#eaeaea;}.cls-11{fill:#e8e7e7;}.cls-12{fill:#e8e8e7;}.cls-13{fill:#e9e9e9;}.cls-14{fill:#dedcd1;}.cls-15{fill:#eae9e9;}.cls-16{fill:#a59f83;}</style></defs><path class="cls-1" d="M4.78,1.82V.09A.52.52,0,0,1,5,0H205l.1,0s.08,0,.08.06c0,.58,0,1.15,0,1.73l-.18.12a7.33,7.33,0,0,1-2.47.17H7a5.57,5.57,0,0,1-2-.17Z"/><path class="cls-1" d="M205.22,58.18v1.73A.52.52,0,0,1,205,60H4.9c-.06,0-.11-.07-.11-.09,0-.58,0-1.15,0-1.73L5,58.06a7.33,7.33,0,0,1,2.47-.17H203.05a5.55,5.55,0,0,1,2,.17Z"/><path class="cls-1" d="M2.4,56.36H.13S0,56.27,0,56.22c0-.21,0-.43,0-.64V4.42a2.41,2.41,0,0,1,0-.71s.06-.07.09-.07H2.4l.16.13a2.25,2.25,0,0,1,.22,1.34V54.89a2.25,2.25,0,0,1-.22,1.34Z"/><path class="cls-1" d="M207.6,3.64h2.27s.11.09.12.14c0,.21,0,.43,0,.64V55.58a2.41,2.41,0,0,1,0,.71s-.06.07-.09.07H207.6l-.16-.13a2.25,2.25,0,0,1-.22-1.34V5.11a2.25,2.25,0,0,1,.22-1.34Z"/><path class="cls-2" d="M4.78,58.18H2.55s-.06,0-.09,0-.06,0-.06-.08c0-.56,0-1.13,0-1.7a2.79,2.79,0,0,1,2.41,0A1.36,1.36,0,0,1,4.78,58.18Z"/><path class="cls-3" d="M207.6,56.36c0,.57,0,1.14,0,1.7,0,0,0,0-.06.08s-.06,0-.09,0h-2.23a1.38,1.38,0,0,1,0-1.84A2.81,2.81,0,0,1,207.6,56.36Z"/><path class="cls-4" d="M2.4,3.64c0-.57,0-1.14,0-1.7,0,0,0-.05.06-.08s.06,0,.09,0H4.78a1.38,1.38,0,0,1,0,1.84A2.81,2.81,0,0,1,2.4,3.64Z"/><path class="cls-3" d="M205.22,1.82h2.23s.06,0,.09,0,.06,0,.06.08c0,.56,0,1.13,0,1.7a2.79,2.79,0,0,1-2.41,0A1.36,1.36,0,0,1,205.22,1.82Z"/><path class="cls-5" d="M205.22,1.82V3.64l-.13.1c-.52.24-1.17,0-1.72.26-.42.4-.08.93-.36,1.36a.58.58,0,0,1-.25.21c-.54.2-1.16,0-1.71.22-.51.42-.12,1-.47,1.45a.74.74,0,0,1-.32.19,16,16,0,0,1-2.4.11c-.55,0-1.11,0-1.67,0H14c-.59,0-1.19,0-1.78,0a17.31,17.31,0,0,1-2.39-.1,1,1,0,0,1-.33-.16c-.4-.44,0-1-.44-1.46-.55-.24-1.18,0-1.73-.24A.64.64,0,0,1,7,5.41C6.74,5,7,4.51,6.7,4.07,6.19,3.72,5.46,4,4.91,3.74l-.13-.1V1.82Z"/><path class="cls-6" d="M205.22,56.36v1.82H4.78V56.36l.13-.1c.52-.24,1.17,0,1.73-.26.4-.41.07-.94.36-1.37a.56.56,0,0,1,.25-.2c.54-.21,1.17,0,1.73-.25.48-.43,0-1.06.53-1.5a1.22,1.22,0,0,1,.39-.15,17.06,17.06,0,0,1,2.26-.06H196.7a23.13,23.13,0,0,1,3.33,0,1.55,1.55,0,0,1,.38.13c.58.41.15,1,.57,1.51.51.28,1.16.07,1.7.26a.62.62,0,0,1,.28.18c.32.42,0,.94.37,1.37.52.31,1.22,0,1.76.31Z"/><path class="cls-7" d="M2.4,3.64H4.78C5.28,4,5,4.58,5.3,5c.54.33,1.35,0,1.87.44s.19.94.52,1.37c.53.34,1.35,0,1.86.44.58.58.32,1.25.35,1.89a2.46,2.46,0,0,1,0,.54q0,20.43,0,40.84c0,.12,0,.24,0,.35-.11.61.21,1.27-.35,1.84-.5.37-1.23.14-1.81.39-.44.41,0,1-.57,1.42s-1.24.15-1.81.4c-.44.41-.05,1-.58,1.42H2.4Z"/><path class="cls-7" d="M205.22,3.64h2.38V56.36h-2.38c-.5-.38-.19-.94-.52-1.38-.54-.33-1.35,0-1.87-.44s-.19-.94-.52-1.37c-.53-.34-1.35,0-1.86-.44a1.38,1.38,0,0,1-.39-1.21c.11-14.28,0-28.57.05-42.85,0-.48-.13-1,.34-1.4s1.23-.14,1.81-.39c.44-.41,0-1,.57-1.42s1.24-.15,1.81-.4C205.08,4.65,204.69,4,205.22,3.64Z"/><path class="cls-8" d="M11.94,7.27H198.06a1.13,1.13,0,0,1,.24.3c.11.57.29,1.16-.36,1.64a7.33,7.33,0,0,1-2.47.17H14.4a10.11,10.11,0,0,1-2.13-.1,1.17,1.17,0,0,1-.41-.18A1.46,1.46,0,0,1,11.94,7.27Z"/><path class="cls-9" d="M198.06,7.46V7.27h2.39V52.73H9.55V50.91l.18,0a.55.55,0,0,1,.26.21c.18.32,0,.7.31,1a4.36,4.36,0,0,0,2,.15c.88,0,1.75,0,2.63,0H195a7.85,7.85,0,0,0,2.33-.15c.37-.31.28-.71.48-1a.79.79,0,0,1,.3-.27c.42-.18.94-.13,1.4-.34.43-.43.28-1,.28-1.46q0-19.14,0-38.27a14,14,0,0,1,0-1.45c0-.46.13-.94-.16-1.38C199.2,7.6,198.5,7.81,198.06,7.46Z"/><path class="cls-9" d="M7.17,5.46H4.93a.18.18,0,0,1-.09,0s-.06,0-.06-.07V3.64H7s.06,0,.09,0,.06,0,.06.07Z"/><path class="cls-9" d="M205.22,3.64v1.7s0,0-.06.07a.18.18,0,0,1-.09,0h-2.24V3.75s0,0,.06-.07.06,0,.09,0Z"/><path class="cls-9" d="M9.55,7.27H7.32s-.06,0-.09,0-.06-.05-.06-.07V5.46H9.4s.06,0,.09,0,.06,0,.06.07Z"/><path class="cls-9" d="M202.83,5.46v1.7s0,0-.06.07-.06,0-.09,0h-2.23V5.57s0-.05.06-.07.06,0,.09,0Z"/><path class="cls-10" d="M11.94,7.27V9.09a2.59,2.59,0,0,1-2.39,0V7.27Z"/><path class="cls-11" d="M7.17,54.54v-1.7s0,0,.06-.07.06,0,.09,0H9.55v1.7s0,0-.06.07-.06,0-.09,0Z"/><path class="cls-12" d="M200.45,52.73h2.23s.06,0,.09,0,.06,0,.06.07v1.7H200.6s-.06,0-.09,0-.06,0-.06-.07Z"/><path class="cls-11" d="M4.78,56.36v-1.7s0,0,.06-.07a.18.18,0,0,1,.09,0H7.17v1.71s0,0-.06.07-.06,0-.09,0Z"/><path class="cls-12" d="M202.83,54.54h2.24a.18.18,0,0,1,.09,0s.06,0,.06.07v1.7H203s-.06,0-.09,0-.06,0-.06-.07Z"/><path class="cls-8" d="M9.55,9.09h2.39a1.37,1.37,0,0,1,.38,1.21q0,19.72,0,39.46a2.53,2.53,0,0,1-.11.9A.84.84,0,0,1,12,51a2.56,2.56,0,0,1-2.18-.05,2.15,2.15,0,0,1-.24-.18Z"/><path class="cls-13" d="M9.55,50.73c.19,0,.21,0,.24.18H9.55Z"/><path class="cls-14" d="M11.94,50.91V9.09H198.06l.15.12a1.88,1.88,0,0,1-.09,1.89,14,14,0,0,1-2.51.07,39.35,39.35,0,0,0-4.18.12,14.74,14.74,0,0,0-.19,3.16,4,4,0,0,0,.14,1.47,4.58,4.58,0,0,0,1.83.19,6.55,6.55,0,0,0,1.88-.12c.44-.42.12-1,.45-1.4a.65.65,0,0,1,.32-.2,3.13,3.13,0,0,1,2.35.22,2.16,2.16,0,0,1,.23,1.34q0,13.2,0,26.41a2.4,2.4,0,0,1-.2,1.34c-.8.47-1.72.1-2.57.2-1.38.06-2.77-.08-4.22.11-.38,1.06-.09,2.13-.21,3.17a4.27,4.27,0,0,0,.13,1.47,4.82,4.82,0,0,0,1.84.19,6.58,6.58,0,0,0,1.88-.13c.44-.41.12-1,.44-1.39a.67.67,0,0,1,.31-.2,3.36,3.36,0,0,1,2.34.18,4.58,4.58,0,0,1-.12,3.61,2.29,2.29,0,0,1-1.23.29H14.47A4.72,4.72,0,0,1,11.94,50.91Z"/><path class="cls-15" d="M198.06,7.46h2s.07,0,.1,0,0,0,0,.07c0,.51,0,1,0,1.52a2.22,2.22,0,0,1-2.15,0Z"/><path class="cls-8" d="M11.94,50.91H198.06v1.54c-.06,0-.12.09-.19.09H11.94A1.1,1.1,0,0,1,11.94,50.91Z"/><path class="cls-8" d="M198.06,9.09h2.15V50.77s0,0,0,.06-.07.08-.09.08h-2V47.27c-.55-.55-.31-1.2-.35-1.81s-.19-1.15.35-1.64V14.55c-.55-.56-.31-1.2-.35-1.82s-.19-1.14.35-1.64Z"/><path class="cls-13" d="M11.94,50.91v1.63H10s-.07,0-.1,0,0,0,0-.07c0-.51,0-1,0-1.52Z"/><path class="cls-8" d="M190.9,47.27V43.71c.09,0,.12-.07.15-.07h4.62c.55.55.32,1.2.35,1.81s.2,1.26-.35,1.82a10.67,10.67,0,0,1-4.77,0Z"/><path class="cls-8" d="M14.33,47.27V43.71c.09,0,.12-.07.15-.07H19.1c.55.55.31,1.2.34,1.81s.21,1.26-.34,1.82a4.94,4.94,0,0,1-2.39.27A4.91,4.91,0,0,1,14.33,47.27Z"/><path class="cls-8" d="M14.33,14.55V11c.09,0,.12-.07.15-.07H19.1c.55.56.31,1.2.34,1.82s.21,1.26-.34,1.82a5.06,5.06,0,0,1-2.39.26A4.79,4.79,0,0,1,14.33,14.55Z"/><path class="cls-8" d="M190.9,14.55V11c.09,0,.12-.07.15-.07h4.62c.55.56.32,1.2.35,1.82s.2,1.26-.35,1.82a5,5,0,0,1-2.38.26A4.82,4.82,0,0,1,190.9,14.55Z"/><path class="cls-5" d="M14.33,47.27h2.38a1.29,1.29,0,0,1,0,1.82H14.48s-.06,0-.09-.05-.06,0-.06-.07Z"/><path class="cls-16" d="M16.71,49.09V47.27H19.1V49s0,.05-.06.07-.06.05-.09.05Z"/><path class="cls-5" d="M190.9,47.27h2.39a1.29,1.29,0,0,1,0,1.82h-2.24s-.06,0-.09-.05-.06,0-.06-.07Z"/><path class="cls-16" d="M193.29,49.09V47.27h2.38V49s0,.05-.06.07-.06.05-.09.05Z"/><path class="cls-16" d="M19.1,47.27V45.45a2.63,2.63,0,0,1,2.38,0c0,.57,0,1.14,0,1.71,0,0,0,0-.05.07s-.07,0-.1,0Z"/><path class="cls-5" d="M19.1,12.73V10.91h2.23s.06,0,.1.05.05,0,.05.07c0,.56,0,1.13,0,1.7A2.63,2.63,0,0,1,19.1,12.73Z"/><path class="cls-16" d="M19.1,12.73h2.38c0,.57,0,1.13,0,1.7,0,0,0,.05-.05.07a.26.26,0,0,1-.1,0H19.1Z"/><path class="cls-16" d="M195.67,14.55V12.73a2.65,2.65,0,0,1,2.39,0v1.82Z"/><path class="cls-5" d="M14.33,14.55h2.38a1.28,1.28,0,0,1,0,1.81H14.48s-.06,0-.09,0-.06-.05-.06-.07Z"/><path class="cls-16" d="M16.71,16.36V14.55H19.1v1.7s0,.05-.06.07-.06,0-.09,0Z"/><path class="cls-5" d="M190.9,14.55h2.39a1.28,1.28,0,0,1,0,1.81h-2.24s-.06,0-.09,0-.06-.05-.06-.07Z"/><path class="cls-16" d="M193.29,16.36V14.55h2.38v1.7s0,.05-.06.07-.06,0-.09,0Z"/><path class="cls-5" d="M21.48,45.45H19.1V43.64h2.23s.06,0,.1,0,.05,0,.05.07C21.49,44.32,21.48,44.89,21.48,45.45Z"/><path class="cls-16" d="M195.67,47.27V45.45a2.65,2.65,0,0,1,2.39,0v1.82Z"/><path class="cls-5" d="M198.06,45.45h-2.39V43.64h2l.25.18h.12Z"/><path class="cls-5" d="M198.06,12.73h-2.39V10.91h2l.25.18h.12Z"/></svg>