<svg id="Layer_1" data-name="Layer 1" xmlns="http://www.w3.org/2000/svg" viewBox="0 0 210 50"><defs><style>.cls-1{fill:#010101;}.cls-2{fill:#050504;}.cls-3{fill:#060605;}.cls-4{fill:#050505;}.cls-5{fill:#cac6b9;}.cls-6{fill:#7d7864;}.cls-7{fill:#aaa68c;}.cls-8{fill:#f9f9f7;}.cls-9{fill:#e9e8e8;}.cls-10{fill:#eaeaea;}.cls-11{fill:#e8e7e7;}.cls-12{fill:#e8e8e7;}.cls-13{fill:#e9e9e9;}.cls-14{fill:#dedcd1;}.cls-15{fill:#eae9e9;}.cls-16{fill:#a59f83;}</style></defs><path class="cls-1" d="M4.78,1.52V.08A.77.77,0,0,1,5,0H205l.1,0s.08,0,.08.06c0,.48,0,1,0,1.44l-.18.1a8.88,8.88,0,0,1-2.47.14H7a6.64,6.64,0,0,1-2-.14Z"/><path class="cls-1" d="M205.22,48.48v1.44A.77.77,0,0,1,205,50H4.9c-.06,0-.11-.06-.11-.08,0-.48,0-1,0-1.44l.18-.1a8.88,8.88,0,0,1,2.47-.14H203.05a6.62,6.62,0,0,1,2,.14Z"/><path class="cls-1" d="M2.4,47H.13S0,46.89,0,46.85s0-.35,0-.53V3.68a1.67,1.67,0,0,1,0-.59S.1,3,.13,3H2.4a.91.91,0,0,0,.16.11,1.61,1.61,0,0,1,.22,1.12V45.74a1.61,1.61,0,0,1-.22,1.12A.91.91,0,0,0,2.4,47Z"/><path class="cls-1" d="M207.6,3h2.27s.11.08.12.12,0,.35,0,.53V46.32a1.67,1.67,0,0,1,0,.59s-.06.06-.09.06H207.6a.91.91,0,0,0-.16-.11,1.61,1.61,0,0,1-.22-1.12V4.26a1.61,1.61,0,0,1,.22-1.12A.91.91,0,0,0,207.6,3Z"/><path class="cls-2" d="M4.78,48.48H2.55l-.09,0s-.06,0-.06-.06c0-.48,0-1,0-1.42a3.29,3.29,0,0,1,2.41,0A1,1,0,0,1,4.78,48.48Z"/><path class="cls-3" d="M207.6,47c0,.47,0,.94,0,1.42,0,0,0,0-.06.06l-.09,0h-2.23a1,1,0,0,1,0-1.53A3.26,3.26,0,0,1,207.6,47Z"/><path class="cls-4" d="M2.4,3c0-.47,0-.94,0-1.42,0,0,0,0,.06-.06a.32.32,0,0,1,.09,0H4.78a1,1,0,0,1,0,1.53A3.26,3.26,0,0,1,2.4,3Z"/><path class="cls-3" d="M205.22,1.52h2.23a.32.32,0,0,1,.09,0s.06,0,.06.06c0,.48,0,1,0,1.42a3.29,3.29,0,0,1-2.41,0A1,1,0,0,1,205.22,1.52Z"/><path class="cls-5" d="M205.22,1.52V3l-.13.08c-.52.2-1.17,0-1.72.22s-.08.78-.36,1.14a.58.58,0,0,1-.25.17c-.54.17-1.16,0-1.71.18-.51.36-.12.84-.47,1.21a.69.69,0,0,1-.32.16,19.19,19.19,0,0,1-2.4.09c-.55,0-1.11,0-1.67,0H14c-.59,0-1.19,0-1.78,0A19,19,0,0,1,9.8,6.21a1.22,1.22,0,0,1-.33-.14c-.4-.36,0-.84-.44-1.21-.55-.2-1.18,0-1.73-.2A.59.59,0,0,1,7,4.51c-.29-.35,0-.76-.33-1.12-.51-.29-1.24-.05-1.79-.28L4.78,3V1.52Z"/><path class="cls-6" d="M205.22,47v1.51H4.78V47l.13-.08c.52-.2,1.17,0,1.73-.22.4-.34.07-.79.36-1.15a.57.57,0,0,1,.25-.16c.54-.18,1.17,0,1.73-.21.48-.36,0-.88.53-1.25a1.49,1.49,0,0,1,.39-.13,21.31,21.31,0,0,1,2.26,0H196.7a28.46,28.46,0,0,1,3.33,0,1.52,1.52,0,0,1,.38.11c.58.34.15.88.57,1.26s1.16.06,1.7.21a.82.82,0,0,1,.28.15c.32.36,0,.79.37,1.15.52.26,1.22,0,1.76.26Z"/><path class="cls-7" d="M2.4,3H4.78c.5.32.19.79.52,1.15.54.28,1.35,0,1.87.37s.19.78.52,1.15c.53.28,1.35,0,1.86.36s.32,1,.35,1.57a1.79,1.79,0,0,1,0,.46c0,11.34,0,22.69,0,34,0,.1,0,.19,0,.29-.11.51.21,1.06-.35,1.53-.5.31-1.23.12-1.81.33s0,.85-.57,1.18-1.24.13-1.81.33-.05.86-.58,1.19H2.4Z"/><path class="cls-7" d="M205.22,3h2.38V47h-2.38c-.5-.32-.19-.79-.52-1.15-.54-.28-1.35,0-1.87-.37s-.19-.78-.52-1.15c-.53-.28-1.35,0-1.86-.36a1,1,0,0,1-.39-1c.11-11.9,0-23.8.05-35.71,0-.39-.13-.81.34-1.16s1.23-.12,1.81-.33,0-.85.57-1.18,1.24-.13,1.81-.33S204.69,3.36,205.22,3Z"/><path class="cls-8" d="M11.94,6.06H198.06a1.36,1.36,0,0,1,.24.24c.11.49.29,1-.36,1.37a8.89,8.89,0,0,1-2.47.15H14.4a12.61,12.61,0,0,1-2.13-.08,1.34,1.34,0,0,1-.41-.15A1.06,1.06,0,0,1,11.94,6.06Z"/><path class="cls-9" d="M198.06,6.21V6.06h2.39V43.94H9.55V42.42l.18,0a.51.51,0,0,1,.26.18c.18.27,0,.58.31.88a5.41,5.41,0,0,0,2,.12c.88,0,1.75,0,2.63,0H195a9,9,0,0,0,2.33-.12c.37-.26.28-.6.48-.87a.69.69,0,0,1,.3-.22c.42-.16.94-.11,1.4-.28.43-.36.28-.81.28-1.22q0-15.94,0-31.9a9.61,9.61,0,0,1,0-1.2c0-.39.13-.79-.16-1.16C199.2,6.33,198.5,6.51,198.06,6.21Z"/><path class="cls-9" d="M7.17,4.55H4.93l-.09,0s-.06,0-.06-.06V3H7s.06,0,.09,0,.06,0,.06.06Z"/><path class="cls-9" d="M205.22,3V4.45s0,0-.06.06l-.09,0h-2.24V3.13s0,0,.06-.06S203,3,203,3Z"/><path class="cls-9" d="M9.55,6.06H7.32a.18.18,0,0,1-.09,0S7.17,6,7.17,6V4.55H9.4l.09,0s.06,0,.06.06Z"/><path class="cls-9" d="M202.83,4.55V6s0,0-.06.06a.18.18,0,0,1-.09,0h-2.23V4.64s0,0,.06-.06l.09,0Z"/><path class="cls-10" d="M11.94,6.06V7.58a3.14,3.14,0,0,1-2.39,0V6.06Z"/><path class="cls-11" d="M7.17,45.45V44s0,0,.06-.06a.18.18,0,0,1,.09,0H9.55v1.42s0,0-.06.06l-.09,0Z"/><path class="cls-12" d="M200.45,43.94h2.23a.18.18,0,0,1,.09,0s.06,0,.06.06v1.41H200.6l-.09,0s-.06,0-.06-.06Z"/><path class="cls-11" d="M4.78,47V45.55s0,0,.06-.06l.09,0H7.17v1.42s0,0-.06.06S7.05,47,7,47Z"/><path class="cls-12" d="M202.83,45.45h2.24l.09,0s.06,0,.06.06V47H203s-.06,0-.09,0-.06,0-.06-.06Z"/><path class="cls-8" d="M9.55,7.58h2.39a1,1,0,0,1,.38,1q0,16.44,0,32.89a1.71,1.71,0,0,1-.11.74.66.66,0,0,1-.24.26,3,3,0,0,1-2.18,0,1.94,1.94,0,0,1-.24-.15Z"/><path class="cls-13" d="M9.55,42.27c.19,0,.21,0,.24.15H9.55Z"/><path class="cls-14" d="M11.94,42.42V7.58H198.06l.15.1a1.34,1.34,0,0,1-.09,1.57,16.19,16.19,0,0,1-2.51.06c-1.37.06-2.75-.08-4.18.1a10.24,10.24,0,0,0-.19,2.63c0,.41-.09.84.14,1.23a5.68,5.68,0,0,0,1.83.16,7.83,7.83,0,0,0,1.88-.11c.44-.34.12-.8.45-1.16a.7.7,0,0,1,.32-.17,3.69,3.69,0,0,1,2.35.19,1.53,1.53,0,0,1,.23,1.11q0,11,0,22a1.69,1.69,0,0,1-.2,1.11c-.8.4-1.72.09-2.57.17-1.38.05-2.77-.06-4.22.09-.38.89-.09,1.78-.21,2.64,0,.41-.09.84.13,1.23a5.47,5.47,0,0,0,1.84.16,7.38,7.38,0,0,0,1.88-.11c.44-.34.12-.8.44-1.15a.63.63,0,0,1,.31-.17,3.88,3.88,0,0,1,2.34.15,3.22,3.22,0,0,1-.12,3,2.47,2.47,0,0,1-1.23.24H14.47A5.51,5.51,0,0,1,11.94,42.42Z"/><path class="cls-15" d="M198.06,6.21h2s.07,0,.1,0,0,0,0,.06c0,.42,0,.84,0,1.27a2.68,2.68,0,0,1-2.15,0Z"/><path class="cls-8" d="M11.94,42.42H198.06v1.29a.44.44,0,0,1-.19.07H11.94A.83.83,0,0,1,11.94,42.42Z"/><path class="cls-8" d="M198.06,7.58h2.15V42.31s0,0,0,0-.07.06-.09.06h-2v-3c-.55-.46-.31-1-.35-1.51s-.19-1,.35-1.37V12.12c-.55-.46-.31-1-.35-1.51s-.19-.95.35-1.37Z"/><path class="cls-13" d="M11.94,42.42v1.37H10s-.07,0-.1,0,0,0,0-.06c0-.42,0-.84,0-1.27Z"/><path class="cls-8" d="M190.9,39.39v-3c.09,0,.12-.07.15-.07h4.62c.55.47.32,1,.35,1.52s.2,1-.35,1.51a13,13,0,0,1-4.77,0Z"/><path class="cls-8" d="M14.33,39.39v-3c.09,0,.12-.07.15-.07H19.1c.55.47.31,1,.34,1.52s.21,1-.34,1.51a5.78,5.78,0,0,1-2.39.22A5.75,5.75,0,0,1,14.33,39.39Z"/><path class="cls-8" d="M14.33,12.12v-3c.09,0,.12-.06.15-.06H19.1c.55.47.31,1,.34,1.52s.21,1.05-.34,1.51a5.78,5.78,0,0,1-2.39.22A5.75,5.75,0,0,1,14.33,12.12Z"/><path class="cls-8" d="M190.9,12.12v-3c.09,0,.12-.06.15-.06h4.62c.55.47.32,1,.35,1.52s.2,1.05-.35,1.51a13,13,0,0,1-4.77,0Z"/><path class="cls-5" d="M14.33,39.39h2.38a1,1,0,0,1,0,1.52H14.48s-.06,0-.09,0-.06,0-.06-.06Z"/><path class="cls-16" d="M16.71,40.91V39.39H19.1v1.42s0,0-.06.06-.06,0-.09,0Z"/><path class="cls-5" d="M190.9,39.39h2.39a1,1,0,0,1,0,1.52h-2.24s-.06,0-.09,0-.06,0-.06-.06Z"/><path class="cls-16" d="M193.29,40.91V39.39h2.38v1.42s0,0-.06.06-.06,0-.09,0Z"/><path class="cls-16" d="M19.1,39.39V37.88a3.07,3.07,0,0,1,2.38,0c0,.47,0,.94,0,1.42,0,0,0,0-.05.06l-.1,0Z"/><path class="cls-5" d="M19.1,10.61V9.09h2.23s.06,0,.1,0,.05,0,.05.06c0,.47,0,.94,0,1.42A3.07,3.07,0,0,1,19.1,10.61Z"/><path class="cls-16" d="M19.1,10.61h2.38c0,.47,0,.94,0,1.41,0,0,0,0-.05.06a.26.26,0,0,1-.1,0H19.1Z"/><path class="cls-16" d="M195.67,12.12V10.61a3.1,3.1,0,0,1,2.39,0v1.51Z"/><path class="cls-5" d="M14.33,12.12h2.38a1,1,0,0,1,0,1.52H14.48s-.06,0-.09,0-.06,0-.06-.06Z"/><path class="cls-16" d="M16.71,13.64V12.12H19.1v1.42s0,0-.06.06-.06,0-.09,0Z"/><path class="cls-5" d="M190.9,12.12h2.39a1,1,0,0,1,0,1.52h-2.24s-.06,0-.09,0-.06,0-.06-.06Z"/><path class="cls-16" d="M193.29,13.64V12.12h2.38v1.42s0,0-.06.06-.06,0-.09,0Z"/><path class="cls-5" d="M21.48,37.88H19.1V36.36h2.23s.06,0,.1,0,.05,0,.05.06C21.49,36.93,21.48,37.41,21.48,37.88Z"/><path class="cls-16" d="M195.67,39.39V37.88a3.1,3.1,0,0,1,2.39,0v1.51Z"/><path class="cls-5" d="M198.06,37.88h-2.39V36.36h2a2.07,2.07,0,0,0,.25.15s.08,0,.12,0Z"/><path class="cls-5" d="M198.06,10.61h-2.39V9.09h2l.25.15h.12Z"/></svg>