<?xml version="1.0" encoding="utf-8"?>
<!-- Generator: Adobe Illustrator 26.1.0, SVG Export Plug-In . SVG Version: 6.00 Build 0)  -->
<svg version="1.1" id="TEXT" xmlns="http://www.w3.org/2000/svg" xmlns:xlink="http://www.w3.org/1999/xlink" x="0px" y="0px"
	 viewBox="0 0 1132 164.7" style="enable-background:new 0 0 1132 164.7;" xml:space="preserve">
<style type="text/css">
	.st0{fill:none;stroke:#000000;stroke-width:0.99;stroke-linecap:round;stroke-linejoin:round;}
	.st1{fill:none;stroke:#000000;stroke-width:0.99;}
	.st2{fill:none;stroke:#000000;stroke-linecap:round;stroke-dasharray:1.4,2.81;}
	.st3{fill:none;stroke:#000000;stroke-width:0.85;stroke-linecap:round;stroke-dasharray:1.2,2.39;}
	.st4{fill:none;stroke:#000000;stroke-width:0.75;stroke-linecap:round;}
	.st5{fill:#4D4D4D;stroke:#000000;stroke-miterlimit:10;}
	.st6{fill:none;stroke:#000000;stroke-width:0.79;stroke-linecap:round;}
	.st7{fill:none;stroke:#000000;stroke-width:1.07;stroke-linecap:round;stroke-dasharray:1.5,3.01;}
	.st8{fill:none;stroke:#000000;stroke-width:0.96;stroke-linecap:round;}
	.st9{fill:none;stroke:#000000;stroke-width:1.3;stroke-linecap:round;stroke-dasharray:1.83,3.66;}
	.st10{fill:none;stroke:#000000;stroke-width:1.3;stroke-linecap:round;stroke-dasharray:1.83,3.65;}
</style>
<path class="st0" d="M98.8,95.1c0.8,1.3,18.6-11.7,19.1-11c0.1,0.3-9.8,8.7-9.3,9.5c0.1,0.1,14.2-9.4,14.7-8.5
	c0.4,0.6-2.1,8.5-2.1,8.6c0.4,0.7,15.3-9.1,15.4-8.9s-10,10.2-10,10.2c0.7,1.1,17.2-10.5,17.5-10.1c0.3,0.6-5,8.4-4.9,8.5
	c0.3,0.5,15.4-9.1,15.4-8.9s-5.4,10.4-5.2,10.7c0.1,0.1,4.6-2.8,4.7-2.7"/>
<path class="st0" d="M100.4,47.3c0,0,15.4-10.2,16-9.2c0.3,0.5-4.2,9.2-3.8,9.9c0.3,0.6,17.6-10.2,17.6-10.1
	c0.4,0.6-4.7,9.4-4.5,9.7c0.5,0.9,15.2-10.5,16-9.2c0.1,0.1-10.9,9.2-10.6,9.7c0.4,0.6,16.5-10.9,17.1-9.9
	c0.4,0.6-5.5,10.1-5.4,10.2c0.2,0.4,17-10.4,17.2-10c0.5,0.9-8.4,9.7-8.2,10s8.3-5,8.4-4.9s-0.1,3.6,0.1,3.9c0,0,0.5-0.3,0.5-0.3"/>
<path class="st0" d="M87.1,39.1c0,0,3.4-2,3.4-2S89,44.7,89,44.7c0.4,0.7,12-7.6,12.2-7.1c0.6,1.1-14.4,13.9-13.9,14.8
	c1,1.7,22.8-14.7,23.5-13.5c1.1,2-23.8,18.4-22.7,20.3c0,0.1,10.9-6.4,11-6.3c0.4,0.8-11.6,10.2-11.4,10.5
	c0.1,0.2,13.2-8.2,13.5-7.8c0.6,1.1-11,13.2-10.7,13.7s8.3-4.9,8.3-4.8c0.5,0.9-9.5,11.7-9.4,11.8c0.2,0.4,10.3-6,10.3-5.9
	c0.4,0.7-12,12.9-11.4,14c0.1,0.2,12.1-8.2,12.6-7.3c0.1,0.2-12.4,13.7-12.4,13.7c0.4,0.7,10.9-6.3,10.9-6.3c0.4,0.7-9.6,9.4-9.2,10
	s17.3-10.1,17.3-10c0.9,1.6-19.4,18.5-19.4,18.5c0.5,0.9,9.9-6.6,10.2-5.9s-10.6,11.6-10,12.7c0.5,0.8,10.6-6.7,10.9-6.3
	c0.1,0.2-9.2,10.7-9.2,10.8c0.5,0.9,9.8-6.1,10-5.8c0.4,0.7-12.7,11.8-12.2,12.6s11.5-7.8,12-6.9c0,0-10.6,11.1-10.1,11.9
	c0,0,9.3-6.3,9.7-5.6c0.1,0.1-11.9,11.4-11.9,11.5c0.3,0.6,11.6-7.9,12.2-7s-12.6,11.8-12,13c0.5,0.9,11.5-6.7,11.5-6.6
	c0.2,0.4-8.3,12.5-8.2,12.7c0.4,0.7,16.6-11.3,17.4-10c0.5,0.9-11.1,9.7-11,9.9s19.1-12.2,19.6-11.3c0.4,0.7-6.8,9.6-6.8,9.6
	c0.5,0.9,15.9-9.8,16.1-9.3s-7.6,9.5-7.3,10.1c0.5,0.9,15.3-9.7,15.6-9c0.3,0.5-6.3,7.7-5.9,8.4c0.2,0.4,14-9.6,14.6-8.5
	c0,0.1-9,9.1-9,9.2c0.7,1.3,16.4-10.2,16.8-9.7c0.4,0.8-6.4,8.9-6.2,9.2c0.7,1.2,15.9-10.1,16.3-9.4c0.2,0.4-7.6,9.3-7.2,10
	c0,0,7.1-4.5,7.3-4.2c0.1,0.1-0.1,4.3,0,4.6l2.6-1.5"/>
<path class="st0" d="M196.7,73.8c0.7,1.2,17.6-11.1,18-10.4c0.1,0.2-8.7,8.1-8.3,8.9c0.1,0.1,13.3-8.7,13.7-7.9
	c0.3,0.5-1.1,7.9-1.1,8c0.9-0.5,1.8-1,2.7-1.6"/>
<path class="st0" d="M173,64.4c0.2-0.1,0.3-0.2,0.5-0.3c0.2,0.4-1.8,7.9-1.4,8.5s14.8-8.6,14.8-8.5c0.3,0.6-3.4,8.7-3.2,8.9
	c0.5,0.9,13.9-9.6,14.6-8.4c0.1,0.1-12.4,10-12.1,10.5c0.4,0.7,18-11.9,18.6-10.7c0.8,1.4-19.4,17.8-19.2,18.1s11.2-6.8,11.4-6.6
	c0.6,1.1-11.8,11.5-11.5,11.9s11.5-7,11.7-6.8c0.3,0.5-10,11.4-9.4,12.5c0.4,0.6,8.4-5.7,8.8-5.1c0.2,0.3-10,9-9.8,9.5
	c0.4,0.7,11.8-6.9,11.8-6.8c0.3,0.5-12.8,13.1-12,14.5c0.4,0.6,9-6,9.3-5.4s-7.9,11-7.7,11.4s7.3-5.4,7.8-4.5
	c0.1,0.2-7.8,11.3-7.6,11.5s7.2-5.3,7.7-4.4c0.1,0.2-10.2,12.4-10.1,12.5s10.6-6.1,10.6-6.1c0.5,0.9-9.7,11.4-9,12.5l12.8-7.4
	c0.5,0.8-10.4,9.2-10,9.9c0.1,0.1,10.1-6.6,10.4-6s-6,8.8-5.7,9.3s7.9-5.6,8.4-4.8c0.1,0.1-3.8,8-3.4,8.7c0.1,0.2,14.9-9.3,15.2-8.8
	s-3.6,9.5-3.3,10s11.9-7.7,12.2-7.1"/>
<path class="st0" d="M185.5,47.9c0,0,3.4-2,3.4-2s-1.6,7.6-1.6,7.6c0.4,0.6,10.5-6.6,10.7-6.2c0.6,1-12.8,13.1-12.4,13.9
	s10-6.5,10.3-5.9"/>
<path class="st0" d="M297.9,124c0,0,3.3-1.9,3.3-1.9"/>
<path class="st0" d="M264.8,74.8c0,0,17.9-11.8,18.5-10.7c0.3,0.5-3.3,8.7-3,9.4c0.2,0.4,12.4-7.2,12.4-7.2c0.3,0.6-3.7,8.9-3.5,9.1
	c0.3,0.5,8.6-6,9.1-5.2c0,0.1-6.9,7.1-6.7,7.4s9.4-6.2,9.7-5.6s-5.5,10-5.4,10.2s9.2-5.6,9.3-5.4c0.4,0.8-7.4,8-7.2,8.2
	c0,0.1,3.9-2.3,3.9-2.3"/>
<path class="st0" d="M249.9,72.2c0.1,0.1,10.4-6.7,10.7-6.2c0,0-19.9,18.1-19.8,18.2c1.3,2.2,35.7-22.5,36.5-21.1
	c1.5,2.7-42.5,28.4-41.3,30.6c0.6,1.1,14.9-9.6,15.3-8.8c0.9,1.5-16.4,14.9-15.6,16.2c0,0,11.7-6.9,11.8-6.8
	c0.5,0.8-12.5,10.6-12.3,11c0.1,0.2,13.2-8.2,13.5-7.8c0.6,1-10.3,12.8-10,13.3c0.2,0.3,7.3-4.3,7.4-4.3c0.4,0.7-7.1,10.4-7,10.5
	c0.2,0.4,8.7-5.1,8.7-5c0.3,0.5-7.7,10.8-7.3,11.6c0.1,0.2,10.2-6.9,10.6-6.1c0.1,0.1-7.4,10.8-7.4,10.8c0.4,0.6,8.8-5.1,8.8-5.1
	c0.2,0.4-4.7,6.9-4.5,7.3s8.3-4.9,8.3-4.8c0.4,0.7-5.4,10.4-5.4,10.4c0.4,0.7,8.4-5.6,8.7-5c0.2,0.3-3,7.9-2.6,8.5
	c0.5,0.8,10.2-6.5,10.5-6c0,0.1-3.2,7.3-3.2,7.3c0.6,1.1,11.4-7.1,11.7-6.7s-7.3,9-7,9.6c1.5,2.7,31.9-21.8,33.3-19.2
	c0,0-22.5,17.2-21.7,18.6c0,0,25.2-16.8,26.1-15.1c0.1,0.1-15.4,13.4-15.4,13.5c0.3,0.4,8.8-6,9.2-5.3"/>
<path class="st0" d="M352.8,75.9c0.9,1.6,21.9-13.8,22.4-12.9c0.1,0.3-9.4,8.5-9,9.3c0.1,0.1,12.1-8,12.5-7.2s-2.2,8.6-2.2,8.6
	c0.3,0.5,10-6,10.1-5.9s-8.1,9.1-8.1,9.1c0.4,0.7,11.2-6.8,11.4-6.6c0.3,0.6-4.5,8.2-4.5,8.3c0.2,0.3,8.7-5.1,8.8-5.1
	s-8.3,12-8.1,12.3s10.7-6.7,11-6.3c0.1,0.1-7.2,11-6.8,11.8s10.4-6.3,10.5-6.1s-10.9,11.1-10.8,11.2s10.9-6.6,11-6.4
	c0.4,0.7-12.2,9.6-11.6,10.6c0.3,0.5,11.4-6.9,11.6-6.7s-10,10.3-10,10.3c0.2,0.4,8.8-6.1,9.2-5.3s-10.6,12.3-10.3,12.8
	s8.9-5.4,9-5.2c0.5,1-8.2,10.8-8,11.1c0.4,0.6,8-5.2,8.3-4.8s-10.9,9.7-10.4,10.6c0,0,11.2-7.2,11.5-6.6c0,0-11.1,12.6-10.7,13.4
	c0.2,0.3,11.6-7.3,11.8-6.8c0.5,0.9-12.2,11.9-11.7,12.7l11.9-6.9c0.2,0.3-12.8,10.3-12.2,11.2c0.4,0.7,11.2-7.6,11.7-6.8
	c0.2,0.4-7.2,9.4-7.1,9.5c0,0,7.3-4.3,7.4-4.3"/>
<path class="st0" d="M345.8,70.2c0,0,6-4,6.3-3.6"/>
<path class="st0" d="M326.5,32.8c0,0,3.4-2,3.5-2s-1.6,7.6-1.5,7.6c0.4,0.6,10.5-6.6,10.7-6.2c0.6,1-12.8,13.1-12.4,13.9
	s9.9-6.4,10.2-5.9c0.6,1-10.1,11.7-9.5,12.7c0,0,10.5-6.2,10.5-6.1c0.4,0.7-11.2,9.9-11,10.2s12.8-7.9,13-7.5
	c0.6,1-10.5,12.9-10.2,13.4s7.8-4.6,7.9-4.5c0.5,0.9-9,11.5-8.9,11.6c0.2,0.4,9.8-5.7,9.8-5.7c0.4,0.6-11.6,12.6-11,13.7
	c0.1,0.2,11.6-7.9,12.2-7c0.1,0.2-11.9,13.4-11.9,13.4c1.4,2.4,35.7-20.6,35.7-20.6c1.2,2-35.2,22.4-34,24.3
	c0.8,1.4,43.2-25.2,43.3-25c2,3.5-45.3,33.5-45.3,33.5c0.6,1,11.4-7.6,11.9-6.9s-12.3,12.4-11.6,13.6c0.5,0.8,10.4-6.6,10.6-6.1
	c0.1,0.2-9,10.6-8.9,10.7c0.5,0.9,9.4-5.9,9.6-5.5c0.4,0.7-12.2,11.6-11.8,12.4s11-7.5,11.5-6.6c0,0-10.1,10.9-9.7,11.6
	c0,0,8.9-6,9.3-5.4c0.1,0.1-11.5,11.1-11.4,11.2c0.3,0.6,11.2-7.6,11.7-6.8s-12.2,11.5-11.5,12.7c0.5,0.8,11-6.4,11-6.4
	c0.3,0.5-11.9,14.5-11.8,14.7c0.2,0.4,10.9-7.4,11.4-6.6s-11.3,9.8-11.2,10s13.3-8.4,13.6-7.9c0.2,0.4-1.5,6.6-1.5,6.6
	s0.9-0.6,1-0.6"/>
<path class="st0" d="M422.8,98.8c0,0,3.4-2,3.5-2s-1.6,7.6-1.5,7.6c0.4,0.7,12-7.6,12.2-7.1s-6.4,9.8-6.2,10.3
	c0.6,1.1,15.3-9.9,15.7-9.1c0.3,0.6-2.8,8.1-2.5,8.6c0,0.1,15.9-9.4,16-9.2c0.4,0.6-9.9,9.2-9.7,9.5s14.4-9,14.7-8.5s-2,7.6-1.9,7.9
	c0.2-0.1,0.3-0.2,0.5-0.3"/>
<path class="st0" d="M538,130.4c0.4,0.7,9.1-5.6,9.3-5.4c0.6,1-10.1,9.9-9.7,10.6s9.3-5.5,9.4-5.4s-10.4,12.2-9.7,13.3
	c0.2,0.3,11.3-7,11.5-6.7s-3.2,6.5-3.1,6.8c0,0,2.2-1.3,2.3-1.3"/>
<path class="st0" d="M487.5,105.5c0.3,0.5,8.8-5.4,8.9-5.1s-12.3,9.9-11.8,10.9c0.1,0.2,20.7-13.5,21.4-12.3
	c1.2,2.1-23.4,20.6-23.3,20.8c0.3,0.5,11.4-6.8,11.5-6.6c0.3,0.5-13.5,12.2-13.5,12.2c0.4,0.7,11.2-6.8,11.3-6.5
	c0.4,0.7-7.2,9.7-7.2,9.8c0.2,0.3,8.2-4.8,8.2-4.8s-7.9,11.7-7.7,12.1s10-6.3,10.2-5.9c0,0.1-2.5,8.6-2.2,9.1
	c0.5,0.8,10.2-6.2,10.3-5.9c0,0.1-6.3,8.5-6.3,8.5c0.1,0.2,11.9-7.2,12-6.9c0.3,0.5-8.4,7.7-8,8.5s14.2-8.7,14.4-8.3
	s-6.2,8.1-6.2,8.1c0.7,1.3,35.9-24.4,37.5-21.6c0.7,1.3-23,18.7-22.4,19.7c0.2,0.4,4.7-2.8,4.8-2.7"/>
<path class="st0" d="M501.3,107.6c0,0,15-9.9,15.6-9c0.2,0.4-1.1,7.6-0.8,8.2s14.6-8.5,14.6-8.4c0.3,0.5-1.7,7.8-1.6,8
	c0.6,1,17-11.7,17.9-10.3c0.1,0.1-12.8,10.3-12.5,10.8s12.5-8.2,13-7.5c0.6,1-11.8,13.6-11.7,13.8s11.2-6.8,11.3-6.6
	c0.7,1.1-11.7,11.5-11.5,11.9s11.5-7,11.6-6.7c0.4,0.7-15.5,14-14.6,15.6c0.6,1,13.5-9.1,14.1-8.1"/>
<path class="st0" d="M484.2,73.4c0.1,0.1,10.5-6.8,10.8-6.2c0,0-8.1,11.4-8.1,11.4c0.9,1.6,25.8-16.3,26.5-15.3
	c0.4,0.7-7.1,10.1-6.8,10.7c0.6,1.1,15-9.7,15.5-9c0.3,0.6-2.4,7.9-2.1,8.4c0,0,11.4-6.7,11.5-6.6c0.3,0.5-7.4,7.9-7.3,8.1
	s12.6-7.8,12.9-7.4c0.4,0.6-3.9,9.4-3.8,9.7s6.7-4,6.7-3.9c0.3,0.6-4.5,8.9-4.5,9c0.2,0.4,8.5-5,8.5-4.9c0.3,0.5-8.2,11-7.7,11.8
	c0.1,0.2,10.8-7.3,11.2-6.5c0.1,0.2-10.6,12.7-10.6,12.7c0.4,0.7,10.2-5.9,10.2-5.9"/>
<path class="st0" d="M570.1,98.8c0,0,3.4-2,3.5-2l-1.5,7.6c0.4,0.7,12-7.6,12.2-7.1s-6.4,9.8-6.2,10.3c0.7,1.1,15.3-9.9,15.7-9.1
	c0.3,0.6-2.8,8.1-2.5,8.6c0,0.1,15.9-9.4,16-9.2c0.4,0.6-9.9,9.2-9.7,9.5s14.4-9,14.7-8.5s-2,7.6-1.8,7.9c0,0,0.5-0.3,0.5-0.3"/>
<path class="st0" d="M627.7,122.8c0,0,3.1-1.8,3.1-1.8s-3.6,5.6-3.3,6c0,0,4.3-2.9,4.5-2.6c0.3,0.6-2,8.4-1.9,8.5
	c0.2,0.4,8.5-5.1,8.5-4.9c0.2,0.3-7.2,8.6-7.2,8.6c0.4,0.7,11.1-6.7,11.2-6.5c0.3,0.5-3.2,7.4-3.2,7.5c0.2,0.3,9.9-5.9,10-5.8
	s-4.9,10.1-4.8,10.4c0.3,0.5,13.7-8.6,14-8.1c0.1,0.1-1.8,8.2-1.5,8.7c0.8,1.4,17-10.3,17.2-9.9c0,0.1-10.2,10.8-10.2,10.8
	c0.4,0.7,38.5-23.2,39-22.5c1,1.8-33.7,19.8-32.2,22.5c0.8,1.5,29.5-18,29.9-17.2c0.3,0.5-15.3,13.3-15.2,13.4
	c0.2,0.3,7.2-5,7.5-4.4"/>
<path class="st0" d="M650.8,48.8c0,0,19.1-12.6,19.7-11.4c0.3,0.5-3.7,8.9-3.3,9.6c0.3,0.5,14.2-8.2,14.2-8.2
	c0.3,0.6-3.6,8.8-3.5,9.1c0.4,0.6,10.1-7,10.6-6.1c0,0.1-7.4,7.4-7.2,7.7s10.7-7.1,11.1-6.4s-4.5,9.5-4.5,9.7s9.9-6,10-5.8
	c0.4,0.7-5.7,8.2-5.5,8.5c0,0.1,2.8-1.7,2.8-1.6"/>
<path class="st0" d="M636.4,45.7c0.1,0.1,9.9-6.4,10.2-5.9c0,0-17,16.5-17,16.5c1.2,2,33.1-20.9,33.9-19.6
	c1.4,2.4-38.2,26.2-37.1,28.1c0.5,0.9,12.6-8.1,13-7.5c0.7,1.2-12.5,12.9-11.8,14c0,0,10.4-6.1,10.4-6c0.4,0.7-10.2,9.4-10,9.7
	c0.1,0.1,12.2-7.5,12.4-7.1c0.5,0.8-6.8,10.9-6.6,11.3s6.9-4.1,6.9-4c0.3,0.6-4.1,8.7-4,8.8c0.2,0.4,9.4-5.5,9.4-5.4
	c0.2,0.4-4.9,9.3-4.5,10c0.1,0.2,12.3-8.4,12.9-7.4c0.1,0.1-6.1,10.1-6.1,10.1c0.5,0.8,12.1-7,12.1-7c0.3,0.4-5.4,7.2-5.1,7.6
	S667,85,667,85.1c0.4,0.7-5.2,10.3-5.2,10.3c0.5,1,11.3-7.5,11.8-6.8c0.2,0.3-3.5,8.1-3.1,8.8c0.5,0.9,11.5-7.3,11.8-6.8
	c0.1,0.1-4,7.7-4,7.8c0.5,1,10.1-6.3,10.3-5.9s-7.2,9-6.8,9.5c0.5,0.9,11-7.4,11.4-6.6c0,0-5.1,8.3-4.8,8.8c0,0,8.2-5.6,8.6-5
	c0,0.1-8.1,9.2-8,9.2c0.3,0.5,10.4-7.1,10.8-6.2s-9.3,10.1-8.7,11.1c0.5,0.8,10.5-6.1,10.5-6c0.3,0.5-11.9,14.5-11.8,14.7
	c0.3,0.5,12-8.1,12.5-7.2c0.7,1.2-15.2,12-15.1,12.2s16.9-10.8,17.4-10"/>
<path class="st0" d="M753.8,104.2c0.4,0.7,11.7-7.3,11.9-6.9c0.1,0.2-7.4,7.5-7,8.1c0,0.1,7.3-4.8,7.6-4.4c0.4,0.7-3.7,9.4-3.7,9.5
	c0.2,0.4,8.1-4.9,8.2-4.7c0.2,0.3-8,9.1-8,9.1c0.4,0.6,10.1-6.1,10.2-5.9c0.3,0.5-4.4,8.1-4.4,8.2c0.2,0.3,8.2-4.8,8.2-4.7
	s-7.2,11.4-7,11.7s10.3-6.4,10.5-6c0.1,0.1-4.2,9.5-3.9,10.1s9.5-5.8,9.6-5.5s-7.7,9.3-7.7,9.4s9.7-5.8,9.8-5.7
	c0.3,0.6-8.7,7.9-8.3,8.7c0.3,0.5,9.9-6,10-5.8s-5.9,8-5.9,8c0.2,0.3,7.2-5,7.6-4.4c0.3,0.5-5,9.3-4.8,9.7c0.3,0.6,7.2-4.4,7.3-4.2
	c0.2,0.4,3.5,4.3,3.6,4.4s1.6-1,1.6-0.9"/>
<path class="st0" d="M782.9,64.8c0,0,0.7-0.5,0.8-0.4c0.9,1.6-26.2,19.8-24.9,22.1c0.7,1.2,36.5-21.1,36.5-21.1
	c2.4,4.2-57.8,38.2-56.8,39.9c1.2,2.1,35.8-24.6,37.5-21.6"/>
<path class="st0" d="M724.3,32.8c0,0,3.4-2,3.5-2l-1.5,7.6c0.4,0.6,10.5-6.6,10.7-6.2c0.6,1-12.8,13.1-12.3,13.9s9.9-6.4,10.2-5.9
	c0.6,1-10.1,11.7-9.5,12.7c0,0,10.5-6.2,10.5-6.1c0.4,0.7-11.2,9.9-11,10.2s12.8-7.9,13-7.5c0.6,1-10.5,12.9-10.2,13.4
	s7.8-4.6,7.9-4.5c0.5,0.9-9,11.5-8.9,11.6c0.2,0.4,9.8-5.7,9.8-5.7c0.4,0.6-11.5,12.6-11,13.7c0.1,0.2,11.7-7.9,12.2-7
	c0.1,0.2-11.9,13.4-11.9,13.4c0.4,0.7,10.5-6,10.5-6c0.4,0.6-9.1,9.1-8.8,9.7c0.2,0.3,9.8-5.8,9.9-5.7c0.7,1.1-11.9,14.2-11.9,14.2
	c0.5,0.8,9.4-6.3,9.8-5.6s-10.1,11.4-9.5,12.4c0.5,0.8,10.2-6.5,10.4-6c0.1,0.1-8.8,10.4-8.7,10.5c0.5,0.9,9.4-5.9,9.6-5.5
	c0.4,0.7-12.2,11.6-11.8,12.4c2.2,3.8,45-30.9,47.1-27.2c0,0-46.9,29.5-45.3,32.2c0,0,26-17.4,27-15.6c0.2,0.3-29.2,21.2-29.1,21.4
	c0.5,0.8,15.4-10.6,16.2-9.3s-16.8,13.8-15.9,15.2c0.5,0.8,11-6.4,11-6.4c0.3,0.5-11.9,14.5-11.8,14.7c0.2,0.4,10.9-7.4,11.4-6.6
	s-11.3,9.8-11.2,10s13.3-8.4,13.6-7.9c0.2,0.4-1.5,6.6-1.5,6.6s1-0.6,1-0.6"/>
<path class="st0" d="M871,124.4c0,0,0.6-0.4,0.6-0.4"/>
<path class="st0" d="M831.8,75.3c0.8,1.4,20.3-12.8,20.8-12c0.1,0.2-8.1,7.8-7.7,8.5c0.1,0.1,10.7-7,11-6.4s-1.1,7.9-1,8
	c0.2,0.4,8.8-5.2,8.8-5.1s-6.8,8.3-6.8,8.3c0.4,0.6,10.1-6.1,10.2-5.9c0.3,0.5-3.1,7.4-3,7.4c0.2,0.3,7.6-4.5,7.7-4.4
	s-6.4,10.9-6.2,11.2s9.5-5.9,9.7-5.6c0.1,0.1-4.6,9.7-4.2,10.3s8.9-5.4,9-5.2s-8.6,9.8-8.5,9.8s9.4-5.6,9.5-5.5
	c0.4,0.6-10,8.5-9.5,9.4c0.3,0.5,9.9-6,10-5.8"/>
<path class="st0" d="M816.8,106.6c0,0,12.6-8.3,13.1-7.5c0.2,0.4-1.2,7.6-0.9,8.2s14.7-8.5,14.7-8.5c0.3,0.5-1.7,7.8-1.6,8
	c0.5,0.8,12.5-8.6,13.1-7.5c0,0.1-7.9,7.6-7.7,8c0.3,0.5,13.8-9.1,14.2-8.2c0.3,0.5-2.6,8.4-2.5,8.5c0.3,0.5,21.6-13.1,21.9-12.6
	c0.7,1.2-13.1,12.2-12.8,12.7s13.5-8.2,13.7-7.9s-0.2,6.4,0.1,6.9c0,0,0.5-0.3,0.5-0.3"/>
<path class="st0" d="M819.6,71.7c0.1,0.1,10-6.5,10.3-6c0,0-19.5,17.9-19.5,18c1.2,2.1,34.7-22,35.5-20.5c1.5,2.6-41.5,28-40.3,30
	c0.6,1,13.3-8.6,13.7-7.9c0.8,1.4-14.8,14.1-14.1,15.3c0,0.1,10.9-6.4,11-6.3c0.4,0.8-11.7,10.2-11.5,10.5
	c0.1,0.2,12.6-7.8,12.9-7.4c0.6,1-9.7,12.5-9.4,13c0.4,0.7,19-11.2,19.1-11c0.8,1.5-18.9,17-18.8,17.3s8.2-4.8,8.3-4.8
	c0.3,0.5-7.3,10.6-6.9,11.4c0.1,0.2,9.8-6.7,10.3-5.9c0.1,0.1-7,10.6-7,10.6c0.3,0.6,8.5-4.9,8.5-4.9c0.2,0.4-4.5,6.7-4.2,7.1
	s8-4.7,8.1-4.7c0.4,0.7-5.2,10.3-5.2,10.3c0.4,0.7,8.3-5.5,8.6-5c0.2,0.3-2.9,7.8-2.6,8.4c0.5,0.8,10.2-6.5,10.4-6
	c0,0.1-3.2,7.3-3.2,7.3c0.6,1,11.2-7,11.4-6.6s-7.1,9-6.8,9.5c0.8,1.4,16.8-11.5,17.6-10.2c0,0-6.6,9.1-6.3,9.7
	c0,0,24.5-16.4,25.5-14.7c0.1,0.2-17.2,14.3-17.1,14.5c0.5,0.9,17.6-12,18.4-10.6"/>
<path class="st0" d="M916.4,73.8c0.7,1.2,17.7-11.1,18-10.4c0.1,0.2-8.7,8.1-8.3,8.9c0.1,0.1,13.2-8.7,13.7-7.9
	c0.3,0.5-1.1,7.9-1.1,8c0.9-0.5,1.8-1,2.7-1.6"/>
<path class="st0" d="M892.7,64.4c0.2-0.1,0.3-0.2,0.5-0.3c0.2,0.4-1.8,7.9-1.5,8.5s14.8-8.6,14.8-8.5c0.3,0.6-3.4,8.7-3.2,8.9
	c0.5,0.9,13.9-9.6,14.6-8.4c0,0.1-12.3,10-12.1,10.5c0.4,0.7,18-11.9,18.6-10.7c0.8,1.4-19.4,17.8-19.2,18.1s11.2-6.8,11.4-6.6
	c0.7,1.1-11.8,11.5-11.5,11.9s11.5-7,11.7-6.8c0.3,0.5-10,11.4-9.4,12.5c0.4,0.6,8.4-5.7,8.8-5.1c0.2,0.3-10,9-9.8,9.5
	c0.4,0.7,11.8-6.9,11.8-6.8c0.3,0.5-12.8,13.1-12,14.5c0.3,0.6,9-6,9.3-5.4s-7.9,11-7.7,11.4s7.3-5.4,7.8-4.5
	c0.1,0.2-7.8,11.3-7.6,11.5s7.2-5.3,7.7-4.4c0.1,0.2-10.2,12.4-10.1,12.5s10.7-6.1,10.7-6.1c0.5,0.9-9.7,11.4-9,12.5l12.8-7.4
	c0.5,0.8-10.3,9.2-10,9.9c0.1,0.1,10.1-6.6,10.4-6s-6,8.8-5.7,9.3s7.9-5.6,8.3-4.8c0.1,0.1-3.8,8-3.4,8.7c0.1,0.2,14.9-9.3,15.2-8.8
	s-3.6,9.5-3.3,10s11.9-7.7,12.2-7.1"/>
<path class="st0" d="M905.2,47.9c0,0,3.4-2,3.5-2l-1.5,7.6c0.4,0.6,10.5-6.6,10.7-6.2c0.6,1-12.8,13.1-12.3,13.9s10-6.5,10.3-5.9"/>
<path class="st0" d="M1017.6,124c0,0,3.3-1.9,3.3-1.9"/>
<path class="st0" d="M984.5,74.8c0,0,17.8-11.8,18.5-10.7c0.3,0.5-3.3,8.7-3,9.4c0.2,0.4,12.4-7.2,12.4-7.2c0.3,0.6-3.7,8.9-3.5,9.1
	c0.3,0.5,8.6-6,9.1-5.2c0,0.1-6.9,7.1-6.7,7.4s9.4-6.2,9.7-5.6s-5.5,10-5.4,10.2s9.2-5.6,9.3-5.4c0.4,0.8-7.4,8-7.2,8.2
	c0.1,0.1,3.9-2.3,3.9-2.3"/>
<path class="st0" d="M969.5,72.2c0.1,0.1,10.4-6.7,10.7-6.2c0,0-19.8,18.1-19.8,18.2c1.3,2.2,35.7-22.5,36.5-21.1
	c1.6,2.7-42.5,28.4-41.2,30.6c0.6,1.1,14.8-9.6,15.3-8.8c0.8,1.5-16.4,14.9-15.6,16.2c0,0,11.7-6.9,11.8-6.8
	c0.5,0.8-12.5,10.6-12.3,11c0.1,0.2,13.2-8.2,13.5-7.8c0.6,1-10.3,12.8-10,13.3c0.2,0.3,7.3-4.3,7.4-4.3c0.4,0.7-7.1,10.4-7,10.5
	c0.2,0.4,8.7-5.1,8.7-5c0.3,0.5-7.8,10.8-7.3,11.6c0.1,0.2,10.2-6.9,10.7-6.1c0.1,0.1-7.3,10.8-7.3,10.8c0.3,0.6,8.8-5.1,8.8-5.1
	c0.2,0.4-4.7,6.9-4.5,7.3s8.3-4.9,8.3-4.8c0.4,0.7-5.3,10.4-5.3,10.4c0.4,0.7,8.4-5.6,8.7-5c0.2,0.3-3,7.9-2.7,8.5
	c0.5,0.8,10.2-6.5,10.5-6c0,0.1-3.2,7.3-3.2,7.3c0.6,1.1,11.4-7.1,11.7-6.7s-7.3,9-7,9.6c1.5,2.7,31.8-21.8,33.3-19.2
	c0,0-22.5,17.2-21.7,18.6c0,0,25.2-16.8,26.2-15.1c0.1,0.1-15.4,13.4-15.4,13.5c0.3,0.4,8.8-6,9.2-5.3"/>
<path class="st0" d="M1072.5,75.9c0.9,1.6,21.9-13.8,22.4-12.9c0.2,0.3-9.4,8.5-9,9.3c0.1,0.1,12.1-8,12.6-7.2s-2.2,8.6-2.2,8.6
	c0.3,0.5,10-6,10.1-5.9s-8.1,9.1-8.1,9.1c0.4,0.7,11.2-6.8,11.4-6.6c0.3,0.6-4.5,8.2-4.5,8.3c0.2,0.3,8.7-5.1,8.8-5.1
	s-8.3,12-8.2,12.3s10.7-6.7,11-6.3c0.1,0.1-7.2,11-6.8,11.8s10.4-6.3,10.5-6.1s-10.9,11.1-10.8,11.2s10.9-6.6,11-6.4
	c0.4,0.7-12.2,9.6-11.6,10.6c0.3,0.5,11.4-6.9,11.6-6.7s-10,10.3-9.9,10.3c0.2,0.4,8.8-6.1,9.2-5.3s-10.6,12.3-10.3,12.8
	s8.9-5.4,9-5.2c0.6,1-8.2,10.8-8,11.1c0.4,0.6,8-5.2,8.3-4.8s-10.9,9.7-10.4,10.6c0,0,11.2-7.2,11.5-6.6c0,0-11.1,12.6-10.7,13.4
	c0.2,0.3,11.6-7.3,11.8-6.8c0.5,0.9-12.2,11.9-11.7,12.7l11.9-6.9c0.2,0.3-12.8,10.3-12.2,11.2c0.4,0.7,11.2-7.6,11.7-6.8
	c0.2,0.4-7.2,9.4-7.1,9.5c0,0,7.3-4.3,7.4-4.3"/>
<path class="st0" d="M1065.5,70.2c0,0,6-4,6.3-3.6"/>
<path class="st0" d="M1046.2,32.8c0,0,3.4-2,3.4-2s-1.6,7.6-1.6,7.6c0.4,0.6,10.5-6.6,10.7-6.2c0.6,1-12.8,13.1-12.3,13.9
	s10-6.4,10.2-5.9c0.6,1-10.1,11.7-9.5,12.7c0,0,10.5-6.2,10.5-6.1c0.4,0.7-11.2,9.9-11,10.2s12.8-7.9,13-7.5
	c0.6,1-10.5,12.9-10.2,13.4s7.8-4.6,7.9-4.5c0.5,0.9-9,11.5-8.9,11.6c0.2,0.4,9.8-5.7,9.8-5.7c0.4,0.6-11.6,12.6-11,13.7
	c0.1,0.2,11.7-7.9,12.2-7c0.1,0.2-11.9,13.4-11.9,13.4c1.4,2.4,35.7-20.6,35.7-20.6c1.2,2-35.2,22.4-34,24.3
	c0.8,1.4,43.2-25.2,43.3-25c2,3.5-45.3,33.5-45.3,33.5c0.6,1,11.4-7.6,11.9-6.9s-12.3,12.4-11.6,13.6c0.5,0.8,10.4-6.6,10.6-6.1
	c0.1,0.2-9,10.6-8.9,10.7c0.5,0.9,9.4-5.9,9.6-5.5c0.4,0.7-12.2,11.6-11.8,12.4s11-7.5,11.5-6.6c0,0-10.1,10.9-9.7,11.6
	c0,0,8.9-6,9.3-5.4c0.1,0.1-11.4,11.1-11.4,11.2c0.3,0.6,11.2-7.6,11.7-6.8s-12.2,11.5-11.5,12.7c0.5,0.8,11-6.4,11-6.4
	c0.3,0.5-11.9,14.5-11.8,14.7c0.3,0.4,10.9-7.4,11.4-6.6s-11.3,9.8-11.2,10s13.3-8.4,13.6-7.9c0.2,0.4-1.5,6.6-1.5,6.6
	s0.9-0.6,1-0.6"/>
<path class="st1" d="M99.8,133.3h63.2v9.6H88.7v-105h72v9.6H99.8L99.8,133.3z M98.6,84.8h55.5v9.5H98.6V84.8z"/>
<path class="st1" d="M173,73v-8.9h48.8V73H173z M210.2,143.7c-7.4,0-13.1-2-17.1-6s-6-9.6-6-17v-74h10.6v73.4
	c0,4.6,1.2,8.1,3.5,10.6c2.4,2.5,5.7,3.7,10.1,3.8c4.3,0.2,8.4-1.3,11.7-4l3.8,7.6c-2.2,1.9-4.8,3.4-7.6,4.2
	C216.3,143.2,213.2,143.6,210.2,143.7z"/>
<path class="st1" d="M276.8,143.7c-7.3,0.1-14.5-1.7-20.9-5.2c-6-3.3-11-8.3-14.5-14.2c-7-13-7-28.6,0-41.6
	c3.4-5.9,8.5-10.8,14.5-14.1c6.4-3.5,13.6-5.2,20.9-5.1c6.3-0.1,12.5,1.2,18.1,3.9c5.3,2.5,9.8,6.6,12.8,11.7l-8,5.4
	c-2.5-3.8-6-6.9-10-8.9c-9-4.1-19.5-3.7-28.2,1c-4.5,2.5-8.2,6.2-10.6,10.7c-5.2,10.2-5.2,22.2,0,32.4c2.5,4.5,6.2,8.2,10.6,10.7
	c8.7,4.7,19.2,5.1,28.2,1c4.1-2,7.5-5,10-8.7l8,5.4c-3,5-7.5,9-12.7,11.6C289.3,142.4,283,143.7,276.8,143.7z"/>
<path class="st1" d="M368.3,63.4c5.8-0.1,11.6,1.1,16.9,3.7c4.9,2.5,8.8,6.4,11.4,11.2c2.7,5,4.1,11.3,4.1,18.9v45.8H390V98.2
	c0-8.3-2.1-14.6-6.2-18.8c-4.1-4.3-10-6.4-17.5-6.4c-5.1-0.1-10.1,1-14.6,3.4c-4.1,2.2-7.5,5.6-9.6,9.8c-2.4,4.8-3.5,10.1-3.4,15.4
	v41.4h-10.6V31.6h10.6v54.1l-2.1-4c2.5-5.6,6.7-10.4,12-13.4C354.1,65,360.7,63.4,368.3,63.4z"/>
<path class="st1" d="M424.4,106.9v-9.3h39.3v9.3H424.4z"/>
<path class="st1" d="M510.5,143.7c-5.3,0.1-10.5-0.9-15.4-3c-4-1.7-7.5-4.5-10-8.1c-2.3-3.5-3.5-7.7-3.4-11.9c0-3.9,1-7.8,2.9-11.2
	c2-3.4,5.2-6,9.6-8.1s10.4-3.1,17.9-3.1h27.2v8h-26.8c-7.6,0-12.9,1.3-15.8,4c-5.6,5.1-5.9,13.8-0.8,19.3c0.5,0.5,1,1,1.6,1.5
	c3.5,2.7,8.4,4,14.7,4c5.5,0.1,10.9-1.3,15.5-4.1c4.4-2.8,7.8-7,9.5-11.9l2.4,7.4c-2,5.2-5.7,9.6-10.4,12.5
	C524.2,142.1,518,143.6,510.5,143.7z M537.6,142.9v-17.5l-0.5-2.9V93.5c0-6.7-1.9-11.9-5.6-15.5c-3.8-3.6-9.3-5.4-16.7-5.4
	c-5,0-9.9,0.8-14.5,2.5C496,76.7,492,79,488.6,82l-4.8-8c4.2-3.5,9.1-6.2,14.4-7.9c5.7-1.9,11.7-2.8,17.7-2.8
	c10.2,0,18.1,2.5,23.6,7.6c5.5,5,8.3,12.7,8.3,23v48.9L537.6,142.9z"/>
<path class="st1" d="M571.7,106.9v-9.3H611v9.3H571.7z"/>
<path class="st1" d="M664.1,143.8c-7.6,0-15.2-1.3-22.4-3.8c-7.2-2.5-12.7-5.8-16.6-9.8l4.3-8.5c4.3,4,9.4,7.1,14.9,9.1
	c6.3,2.5,13,3.7,19.7,3.7c6.6,0,12-0.8,16.1-2.5c4.1-1.7,7.2-3.9,9.2-6.7c1.9-2.7,3-6,2.9-9.3c0.2-3.6-1.1-7.2-3.5-9.9
	c-2.6-2.7-5.7-4.7-9.2-5.9c-4.1-1.5-8.3-2.8-12.6-3.8c-4.6-1.1-9.2-2.3-13.8-3.5c-4.4-1.2-8.7-2.8-12.7-5c-3.7-2-6.9-4.8-9.3-8.3
	c-2.3-3.5-3.5-8-3.5-13.6c0-5.1,1.4-10.1,4.1-14.3c2.8-4.3,7-7.8,12.7-10.5s13-4,21.9-4c5.9,0,11.8,0.8,17.5,2.5
	c5.3,1.4,10.4,3.7,15,6.8l-3.8,8.9c-4.4-3-9.2-5.2-14.3-6.6c-4.8-1.4-9.7-2.1-14.6-2.1c-6.3,0-11.5,0.9-15.6,2.5
	c-3.6,1.3-6.8,3.7-9.1,6.8c-1.9,2.8-3,6.2-2.9,9.7c-0.2,3.6,1.1,7.2,3.5,9.9c2.6,2.7,5.8,4.7,9.3,5.9c4.2,1.5,8.4,2.7,12.7,3.8
	c4.6,1.1,9.2,2.3,13.7,3.6c4.4,1.2,8.6,2.9,12.6,5c3.7,1.9,6.9,4.7,9.3,8.2c2.3,3.4,3.5,7.9,3.5,13.4c0,5-1.4,10-4.2,14.2
	c-2.8,4.4-7.1,7.9-12.8,10.5C680.4,142.4,673.1,143.7,664.1,143.8z"/>
<path class="st1" d="M725.9,142.9V31.6h10.7v111.3H725.9z M734.3,122.5l0.3-13.6l49-44.7h13L762,97.3l-6,5.1L734.3,122.5z
	 M786.9,142.9l-32.8-41l6.9-8.2l39,49.2H786.9z"/>
<path class="st1" d="M847.1,143.7c-7.5,0.2-15-1.6-21.6-5.2c-6.1-3.3-11.1-8.2-14.5-14.2c-3.6-6.3-5.4-13.5-5.2-20.8
	c-0.2-7.2,1.6-14.3,5-20.7c3.2-5.9,8-10.8,13.8-14.2c6-3.5,12.8-5.3,19.7-5.2c6.9-0.1,13.7,1.6,19.7,5c5.7,3.3,10.4,8.2,13.6,14.1
	c3.4,6.4,5.1,13.6,5,20.9c0,0.5,0,1-0.1,1.6s-0.1,1.1-0.1,1.7h-68.6v-8h62.8l-4.2,3.1c0.1-5.3-1.2-10.6-3.7-15.2
	c-2.3-4.3-5.8-7.9-10-10.4c-4.4-2.6-9.4-3.9-14.5-3.8c-5.1-0.1-10.1,1.2-14.5,3.8c-4.3,2.5-7.7,6.1-10,10.5
	c-2.5,4.8-3.7,10.1-3.6,15.5v1.6c-0.1,5.5,1.2,11,4,15.8c2.6,4.5,6.5,8.2,11.1,10.6c5,2.6,10.6,3.9,16.3,3.8
	c4.6,0.1,9.1-0.8,13.4-2.5c4.2-1.7,7.8-4.4,10.7-7.8l6,6.9c-3.5,4.2-8,7.5-13.1,9.6C858.9,142.6,853,143.7,847.1,143.7z"/>
<path class="st1" d="M892.7,73v-8.9h48.8V73H892.7z M929.9,143.7c-7.4,0-13.1-2-17.1-6s-6-9.6-6-17v-74h10.7v73.4
	c0,4.6,1.2,8.1,3.5,10.6c2.3,2.5,5.7,3.7,10.1,3.8c4.3,0.1,8.4-1.3,11.7-4l3.8,7.6c-2.2,1.9-4.8,3.4-7.6,4.2
	C936,143.2,932.9,143.6,929.9,143.7z"/>
<path class="st1" d="M996.5,143.7c-7.3,0.1-14.5-1.7-20.9-5.2c-6-3.3-11-8.3-14.5-14.2c-7-13-7-28.6,0-41.6
	c3.4-5.9,8.5-10.8,14.5-14.1c6.4-3.5,13.6-5.2,20.9-5.1c6.3-0.1,12.5,1.2,18.2,3.9c5.3,2.5,9.8,6.6,12.8,11.7l-7.9,5.4
	c-2.5-3.8-6-6.9-10.1-8.9c-9-4.1-19.5-3.7-28.2,1c-4.5,2.5-8.2,6.2-10.7,10.7c-5.2,10.2-5.2,22.2,0,32.4c2.5,4.5,6.2,8.2,10.7,10.7
	c8.7,4.7,19.2,5.1,28.2,1c4.1-2,7.5-5,10.1-8.7l7.9,5.4c-3,5-7.5,9-12.8,11.6C1009,142.4,1002.7,143.7,996.5,143.7z"/>
<path class="st1" d="M1088,63.4c5.8-0.1,11.6,1.1,16.9,3.7c4.9,2.5,8.8,6.4,11.4,11.2c2.8,5,4.1,11.3,4.1,18.9v45.8h-10.7V98.2
	c0-8.3-2.1-14.6-6.2-18.8c-4.1-4.3-10-6.4-17.5-6.4c-5.1-0.1-10.1,1-14.6,3.4c-4.1,2.2-7.5,5.6-9.6,9.8c-2.4,4.8-3.5,10.1-3.4,15.4
	v41.4h-10.7V31.6h10.7v54.1l-2.1-4c2.5-5.6,6.7-10.4,12-13.4C1073.8,65,1080.4,63.4,1088,63.4z"/>
<path class="st2" d="M57.4,125.7c-1.3-5.9-21.1-11.9-21.1,10.3"/>
<line class="st2" x1="58" y1="137.5" x2="6.5" y2="137.5"/>
<line class="st2" x1="1030.6" y1="51.3" x2="962" y2="51.3"/>
<line class="st2" x1="996.3" y1="58" x2="996.3" y2="9.4"/>
<line class="st3" x1="1061.9" y1="155.7" x2="1012" y2="155.7"/>
<line class="st3" x1="1037" y1="158.5" x2="1037" y2="110"/>
<line class="st2" x1="535.6" y1="148.7" x2="498.5" y2="148.7"/>
<path class="st4" d="M530.5,55.6c6.8,0.7,23.4,4.7,25,25.6"/>
<polygon class="st5" points="491.3,110.4 490.7,108.5 491.5,106.8 487.2,108.3 "/>
<polygon class="st5" points="555.7,84.9 553.5,80.1 555.6,81.2 557.5,79.9 "/>
<line class="st6" x1="232.3" y1="54" x2="315" y2="54"/>
<path class="st5" d="M227.9,54c1.6,0.6,3.1,1.4,4.4,2.4l-0.9-2.4l0.9-2.4C231,52.6,229.5,53.5,227.9,54z"/>
<path class="st5" d="M319.2,54c-1.6,0.5-3.1,1.1-4.4,1.9l0.9-1.9l-0.9-1.9C316.1,52.9,317.6,53.6,319.2,54z"/>
<line class="st7" x1="209.5" y1="46.7" x2="209.5" y2="64"/>
<line class="st7" x1="317" y1="71" x2="317" y2="137.3"/>
<line class="st8" x1="57.7" y1="150.7" x2="181.9" y2="150.7"/>
<path class="st5" d="M54,150.7c1.9,0.7,3.7,1.7,5.3,3l-1.1-3l1.1-3C57.7,149,55.9,150,54,150.7z"/>
<path class="st5" d="M185.6,150.7c-1.9,0.7-3.7,1.7-5.3,3l1.1-3l-1.1-3C181.9,149,183.7,150,185.6,150.7z"/>
<line class="st9" x1="51.2" y1="141.2" x2="51.2" y2="158.6"/>
<line class="st9" x1="189.1" y1="141.2" x2="189.1" y2="158.6"/>
<line class="st8" x1="818.7" y1="150.6" x2="942.1" y2="150.6"/>
<path class="st5" d="M814.9,150.6c1.9,0.7,3.7,1.7,5.3,3l-1.1-3l1.1-3C818.6,148.9,816.8,149.9,814.9,150.6z"/>
<path class="st5" d="M945.8,150.6c-1.9,0.7-3.7,1.7-5.3,3l1.1-3l-1.1-3C942.1,148.9,943.9,149.9,945.8,150.6z"/>
<line class="st10" x1="802.4" y1="52.8" x2="802.4" y2="149.8"/>
<line class="st10" x1="949.2" y1="94.6" x2="949.2" y2="154.2"/>
</svg>
