<svg id="Layer_1" data-name="Layer 1" xmlns="http://www.w3.org/2000/svg" viewBox="0 0 210 30"><defs><style>.cls-1{fill:#010101;}.cls-2{fill:#040405;}.cls-3{fill:#050505;}.cls-4{fill:#060606;}.cls-5{fill:#8580a4;}.cls-6{fill:#6b658d;}.cls-7{fill:#aaa68c;}.cls-8{fill:#847fa3;}.cls-9{fill:#837ea1;}.cls-10{fill:#c4bcd0;}.cls-11{fill:#c7bfd2;}.cls-12{fill:#c5bdd0;}.cls-13{fill:#c5bdd1;}.cls-14{fill:#040404;}.cls-15{fill:#040304;}.cls-16{fill:#c4bccf;}.cls-17{fill:#030304;}.cls-18{fill:#7d7864;}.cls-19{fill:#e9e8e8;}.cls-20{fill:#e8e8e7;}.cls-21{fill:#e7e6e6;}.cls-22{fill:#e5e5e5;}.cls-23{fill:#f9f9f7;}.cls-24{fill:#eaeaea;}.cls-25{fill:#e8e7e7;}.cls-26{fill:#e7e7e7;}.cls-27{fill:#e6e6e6;}.cls-28{fill:#e9e9e9;}.cls-29{fill:#cac6b9;}.cls-30{fill:#eae9e9;}.cls-31{fill:#dedcd1;}.cls-32{fill:#a59f83;}</style></defs><path class="cls-1" d="M203.15,29.21v.73a1.16,1.16,0,0,1-.18,0H6.93l-.08,0v-.73L7,29.16a15.4,15.4,0,0,1,2.36-.07H201a12.29,12.29,0,0,1,2,.07Z"/><path class="cls-1" d="M6.85.77V0A1.16,1.16,0,0,1,7,0h196s.08,0,.08,0V.77l-.17,0a15.4,15.4,0,0,1-2.36.07H39.39Q24.21.89,9,.89A12.29,12.29,0,0,1,7,.82Z"/><path d="M207.72,2.31h2.16s.12,0,.12.06v3s0,0,0,0l-.09,0h-4.32c-.08,0-.11,0-.11.07V24.56l.1,0h4.33l.09,0s0,0,0,0v2.95a0,0,0,0,1,0,0,.16.16,0,0,1-.09,0h-2.16l-.15-.05c-.42-.49,0-1-.18-1.47-.07-.2.09-.41-.21-.6a22.64,22.64,0,0,0-2.47-.07,5.68,5.68,0,0,1-1.69-.14.53.53,0,0,1-.24-.57V5.22c0-.19,0-.38.22-.56a4.44,4.44,0,0,1,1.56-.16c.85,0,1.73,0,2.54,0,.42-.2.21-.41.29-.61.13-.49-.24-1,.18-1.48Z"/><path d="M2.28,27.67H.12s-.12,0-.12-.06V24.66s0,0,0,0l.09,0H4.45c.08,0,.11,0,.11-.06V5.42l-.1,0H.13L0,5.36s0,0,0,0V2.37a0,0,0,0,1,0,0l.09,0H2.28l.14,0c.3.24.15.49.18.74a3.66,3.66,0,0,1,0,.74c.05.19-.07.38.18.58a15.87,15.87,0,0,0,2.4.08A6,6,0,0,1,7,4.65c.28.17.24.37.24.56V24.76c0,.19,0,.38-.22.56a4.35,4.35,0,0,1-1.54.16c-.86,0-1.73,0-2.56.06-.43.18-.21.39-.29.59a3.76,3.76,0,0,1,0,.75c0,.25.12.5-.19.74Z"/><path class="cls-2" d="M4.56,1.54c0-.24,0-.48,0-.72l0,0,.09,0H6.85c.48.24.42.5.09.75a6.33,6.33,0,0,1-2.22.07Z"/><path class="cls-3" d="M203.15.77h2.14l.09,0,.05,0c0,.24,0,.48,0,.72l-.16.05a6.52,6.52,0,0,1-2.21-.06C202.72,1.27,202.67,1,203.15.77Z"/><path class="cls-2" d="M2.28,2.31V1.59s0,0,.06,0l.09,0H4.56c.49.25.46.51,0,.77A5.85,5.85,0,0,1,2.28,2.31Z"/><path class="cls-3" d="M205.44,1.54h2.13l.09,0s.06,0,.06,0v.72a6,6,0,0,1-2.31,0C205,2.06,204.94,1.8,205.44,1.54Z"/><path class="cls-3" d="M4.56,28.44H2.43l-.09,0-.06,0v-.72a6.24,6.24,0,0,1,2.24,0c.53.24.42.49.19.75Z"/><path class="cls-4" d="M207.72,27.67v.72l-.06,0-.09,0h-2.13l-.15-.05c-.23-.26-.34-.51.18-.74A6.08,6.08,0,0,1,207.72,27.67Z"/><path class="cls-3" d="M6.85,29.21H4.71l-.09,0s0,0,0,0c0-.24,0-.48,0-.72a6,6,0,0,1,2.31,0C7.31,28.69,7.34,29,6.85,29.21Z"/><path class="cls-4" d="M205.44,28.44c0,.24,0,.48,0,.72,0,0,0,0-.05,0l-.09,0h-2.14c-.49-.26-.45-.51,0-.78A6,6,0,0,1,205.44,28.44Z"/><path class="cls-5" d="M203.15,28.44v.77H6.85v-.77L7,28.39a16.78,16.78,0,0,1,2.36-.07H201a13.5,13.5,0,0,1,2,.07Z"/><path class="cls-5" d="M203.15.77v.77l-.17.05a15.4,15.4,0,0,1-2.36.07H9a13.5,13.5,0,0,1-2-.07l-.17-.05V.77Z"/><path class="cls-6" d="M6.85,4.61H2.38l-.09,0c0-.24,0-.48,0-.73.5-.16,1.25,0,1.78-.17.33-.17.1-.37.33-.55A.55.55,0,0,1,4.62,3c.51-.09,1.12,0,1.67-.11s.06-.44.51-.63l.37-.07c.6-.05,1.21,0,1.82,0H201.05c.57,0,1.14,0,1.7,0l.37,0c.55.18.14.45.54.65s1.12,0,1.63.1a1.25,1.25,0,0,1,.27.08c.31.18,0,.4.35.58a15.1,15.1,0,0,0,1.52.11l.29.06c0,.25,0,.49,0,.73l-.06,0h-4.5l-.12,0c-.29-.17-.07-.37-.31-.54-.58-.15-1.35,0-1.91-.17a.63.63,0,0,1-.2-.13c-.13-.14-.08-.3-.34-.53H10c-.59.2-.43.41-.66.57-.43.27-1.39.1-2,.26-.33.16-.08.37-.38.54Z"/><path class="cls-6" d="M2.28,26.14c0-.24,0-.49,0-.73,0,0,0,0,.06,0h4.5l.13,0c.29.17.06.38.35.54.63.15,1.54,0,2,.25.21.16.13.34.37.48,1,.13,189.31.15,190.55,0,.31-.13.22-.29.35-.43a.43.43,0,0,1,.16-.13c.54-.18,1.34,0,1.91-.18.33-.17.06-.38.36-.55l.13,0h4.5s.06,0,.06,0c0,.24,0,.49,0,.73l-.29.06c-.46.06-1,0-1.45.08s-.11.41-.39.59a.55.55,0,0,1-.24.09c-.51.08-1.11,0-1.65.1s0,.45-.51.63a1.91,1.91,0,0,1-.36.07c-.6,0-1.21,0-1.82,0H9c-.57,0-1.14,0-1.7,0a2.16,2.16,0,0,1-.38-.06c-.54-.17-.13-.45-.54-.64s-1.13,0-1.65-.11a.73.73,0,0,1-.26-.08c-.26-.18-.06-.38-.32-.55C3.56,26.17,2.78,26.31,2.28,26.14Z"/><path class="cls-7" d="M203.15,4.61V25.37a15.2,15.2,0,0,1-1.73.16c-.42.18,0,.44-.55.61a6.44,6.44,0,0,1-2.15.05c-.12,0-.19-.05-.2-.1.38-.21,1.13-.07,1.63-.2.23-.1.23-.22,0-.34a13.58,13.58,0,0,0-1.48-.13.67.67,0,0,1-.25-.08c-.26-.17,0-.37-.31-.56-.53-.15-1.32,0-1.88-.17a.48.48,0,0,1-.2-.12c-.24-.34-.06-.69-.06-1q0-8.68,0-17.37c0-.22-.09-.44.14-.65.45-.25,1.34-.1,1.92-.23.37-.18.08-.41.45-.58a16.06,16.06,0,0,1,1.64-.19c.33-.18.05-.4.4-.58a.61.61,0,0,1,.33,0c.47.17.18.4.5.59C201.88,4.57,202.66,4.44,203.15,4.61Z"/><path class="cls-8" d="M207.72,3.84h-.23c-.48-.16-.18-.4-.5-.58s-1.13,0-1.55-.18-.39-.48-.15-.72l.15,0h2.28Z"/><path class="cls-9" d="M207.49,26.14h.23v1.53h-2.28l-.14-.05c-.25-.24-.33-.48.14-.71a9.86,9.86,0,0,1,1.49-.16C207.36,26.57,207,26.3,207.49,26.14Z"/><path class="cls-7" d="M6.85,25.37V4.61A10.48,10.48,0,0,1,9.11,4.5a14.07,14.07,0,0,1,2.26.08c.53.17.22.42.53.61.55.15,1.38,0,1.89.21s.22.52.24.78a.47.47,0,0,1,0,.23c0,5.75,0,11.49,0,17.24a.35.35,0,0,1,0,.14c-.07.25.06.5-.13.74a.5.5,0,0,1-.22.1c-.54.11-1.2,0-1.74.12s-.09.41-.39.6a1.2,1.2,0,0,1-.28.08c-.73.08-1.47,0-2.2.05A10.08,10.08,0,0,1,6.85,25.37Z"/><path class="cls-5" d="M2.28,2.31H4.56l.14,0c.25.24.33.48-.14.72a5.47,5.47,0,0,1-2.28,0Z"/><path class="cls-10" d="M2.28,3.08H4.56c0,.24,0,.48,0,.71l0,0-.09,0H2.28Z"/><path class="cls-10" d="M2.28,26.14H4.42l.09,0s0,0,0,0c0,.24,0,.48,0,.72a5.65,5.65,0,0,1-2.28,0Z"/><path class="cls-8" d="M2.28,26.91H4.56c.47.23.39.47.15.71l-.15.05H2.28Z"/><path class="cls-5" d="M4.56,2.31V1.54H6.85c.48.25.48.51,0,.77A5.52,5.52,0,0,1,4.56,2.31Z"/><path class="cls-8" d="M205.44,1.54v.77a5.52,5.52,0,0,1-2.29,0c-.48-.26-.48-.52,0-.77Z"/><path class="cls-8" d="M6.85,28.44H4.56v-.77a5.52,5.52,0,0,1,2.29,0C7.33,27.93,7.33,28.19,6.85,28.44Z"/><path class="cls-9" d="M205.44,28.44h-2.29c-.48-.25-.48-.51,0-.77a5.52,5.52,0,0,1,2.29,0Z"/><path class="cls-11" d="M203.15,27.67v.77H6.85v-.77Z"/><path class="cls-11" d="M203.15,1.54v.77H6.85V1.54Z"/><path class="cls-1" d="M200.87,3.84h-.23a9,9,0,0,1-2.16.12c-.41,0-.83,0-1.25,0H13.58c-.73,0-1.45,0-2.17,0a16.57,16.57,0,0,1-2.12-.07l-.16-.05V3.11a1.13,1.13,0,0,1,.18,0c.34,0,.69,0,1,0H199.66c.34,0,.69,0,1,0h.1l.08,0Z"/><path class="cls-12" d="M4.56,2.31H6.85V3s0,0-.06,0H4.56Z"/><path class="cls-13" d="M203.15,2.31h2.29v.77h-2.23l-.06,0Z"/><path class="cls-14" d="M9.13,4.61H6.85V3.89s0,0,.05,0l.09,0H9.13C9.61,4.1,9.61,4.36,9.13,4.61Z"/><path class="cls-15" d="M203.15,4.61H201l-.09,0s-.06,0-.06,0V3.84H203l.09,0s.05,0,.05,0Z"/><path class="cls-16" d="M205.44,3.08h2s.06,0,.06,0v.72h-1.91l-.09,0-.05,0C205.43,3.55,205.44,3.31,205.44,3.08Z"/><path d="M198.59,26.14h2.28v.73l-.18,0H9.21l-.08,0v-.73l.16-.05A16.35,16.35,0,0,1,11.4,26H196.16A9.71,9.71,0,0,1,198.59,26.14Z"/><path class="cls-14" d="M6.85,25.37H9.13c.48.25.48.51,0,.77H7l-.09,0s-.05,0-.05,0Z"/><path class="cls-17" d="M200.87,26.14v-.72s0,0,.06,0l.09,0h2.13v.72s0,0-.05,0l-.09,0Z"/><path class="cls-12" d="M6.85,27.67H4.56v-.76c.72,0,1.43,0,2.14,0h.09l.06,0Z"/><path class="cls-13" d="M205.44,27.67h-2.29V27l.06,0h.09c.71,0,1.42,0,2.14,0Z"/><path class="cls-16" d="M207.49,26.14v.72s0,0-.06,0h-2c0-.24,0-.48,0-.72,0,0,0,0,.05,0l.09,0Z"/><path class="cls-18" d="M198.59,26.14H11.18c-.18-.27-.22-.53.23-.77a13.4,13.4,0,0,1,1.71-.16c.45-.18.07-.44.58-.61a4,4,0,0,1,1.18-.11H194.56a6.14,6.14,0,0,1,1.74.12c.48.16.19.4.5.58.51.14,1.29,0,1.79.19s.46.46,0,.69Z"/><path class="cls-19" d="M196.3,24.6H13.7v-.77l.17,0a.55.55,0,0,1,.24.09c.18.13,0,.3.3.44a9,9,0,0,0,1.89.06h175a13.5,13.5,0,0,0,2.12-.07c.38-.15.23-.36.59-.5s1-.09,1.5-.2.24-.41.24-.62q0-8.06,0-16.12a3.56,3.56,0,0,1,0-.65c0-.19.11-.39-.12-.58-.44-.15-1.11,0-1.56-.18-.09,0-.1-.07,0-.12a7.37,7.37,0,0,1,2.15,0l.14,0Z"/><path class="cls-19" d="M198.59,4.61c0,.24,0,.48,0,.72l-.05,0-.09,0H196.3c-.5-.26-.41-.52-.05-.78a7.18,7.18,0,0,1,2.17,0Z"/><path class="cls-20" d="M198.59,25.37h-2.14l-.09,0-.05,0c0-.24,0-.48,0-.72h2.14l.09,0,.05,0C198.59,24.89,198.59,25.13,198.59,25.37Z"/><path class="cls-21" d="M198.59,3.84h2v.74l-.14,0h-1.91C198.11,4.36,198.11,4.1,198.59,3.84Z"/><path class="cls-22" d="M198.59,26.06v-.69h1.93s.12,0,.12.06c0,.19,0,.38,0,.57,0,0,0,0,0,0a.19.19,0,0,1-.08,0Z"/><path class="cls-23" d="M13.7,23.75V6.15a6.77,6.77,0,0,1,2.25,0,1.29,1.29,0,0,1,.26.12c.18.19.13.38.13.57q0,8.2,0,16.39a.72.72,0,0,1-.11.54.61.61,0,0,1-.23.12,5.2,5.2,0,0,1-2.08,0Z"/><path class="cls-19" d="M13.7,5.38H11.56l-.09,0-.05,0c0-.24,0-.48,0-.72l.16-.05a7.8,7.8,0,0,1,2.16,0c.38.25.39.49.11.74Z"/><path class="cls-24" d="M16,6.15H13.7V5.38a6.29,6.29,0,0,1,2.33,0C16.43,5.63,16.49,5.89,16,6.15Z"/><path class="cls-25" d="M13.7,24.6c0,.24,0,.48,0,.72l0,0-.09,0H11.41c0-.24,0-.48,0-.72l.05,0,.09,0Z"/><path class="cls-26" d="M9.13,4.61V3.84h2c.81.24.67.5.23.77Z"/><path class="cls-27" d="M11.41,25.37V26l-.22.08s0,0,0,0h-2v-.77Z"/><path class="cls-28" d="M13.7,23.75c.18,0,.19,0,.22.08H13.7Z"/><path class="cls-29" d="M11.41,4.61V4l-.22-.08s0,0,0,0H198.59v.77h-2.14l-.09,0-.05,0c0,.24,0,.48,0,.72H194a3.9,3.9,0,0,1-1.17.12H18.4A10.16,10.16,0,0,1,16,5.38H13.7c0-.24,0-.48,0-.72l0,0-.09,0Z"/><path class="cls-23" d="M16,5.38H194v.08c.45.22.4.45.1.69a3,3,0,0,1-.37.08,16,16,0,0,1-1.7,0q-87,0-174.1,0a7.47,7.47,0,0,1-2-.12Z"/><path class="cls-23" d="M194,23.83v.65a.58.58,0,0,1-.18,0H16q-.69-.35,0-.69a4.25,4.25,0,0,1,1.17-.12H191.49a15.4,15.4,0,0,1,2.36.07Z"/><path class="cls-23" d="M196.08,6.15q0,8.81,0,17.62s0,0,0,0l-.09,0H194c-.55-.24-.31-.53-.35-.8a2.41,2.41,0,0,1,0-.71,4.28,4.28,0,0,1,0-.8,2.89,2.89,0,0,1,0-.72c-.08-2.28,0-4.56,0-6.84,0-1.82-.06-3.64,0-5.46a3.57,3.57,0,0,1,0-.8,3.37,3.37,0,0,1,0-.71c.06-.28-.24-.58.33-.84A4.77,4.77,0,0,1,196.08,6.15Z"/><path class="cls-30" d="M196.08,6.15H194V5.46h1.91l.09,0,0,0C196.08,5.72,196.08,5.94,196.08,6.15Z"/><path class="cls-28" d="M16,23.83v.69H14.07l-.09,0s-.05,0-.05,0c0-.21,0-.43,0-.64Z"/><path class="cls-31" d="M194,22.29v1.54H16V6.15H194V7c-.78.08-1.58,0-2.36,0-1.31,0-2.63,0-4,0-.34.45-.07.9-.18,1.34,0,.21-.09.42.13.62a10.26,10.26,0,0,0,1.75.08,15.4,15.4,0,0,0,1.8,0c.43-.17.12-.4.41-.59a1.2,1.2,0,0,1,.28-.08,6.7,6.7,0,0,1,2.15.06V20.83c-.78.09-1.58,0-2.36,0-1.31,0-2.63,0-4,.06-.34.45-.07.9-.18,1.33,0,.21-.09.43.13.62a9.33,9.33,0,0,0,1.75.08,13.48,13.48,0,0,0,1.8-.05c.43-.17.12-.4.41-.58a.84.84,0,0,1,.28-.09A7,7,0,0,1,194,22.29Z"/><path class="cls-32" d="M194,8.46h-2.28c-.51-.26-.44-.52-.06-.79a5.94,5.94,0,0,1,2.34,0Z"/><path class="cls-32" d="M194,22.29h-2.28c-.51-.25-.44-.52-.06-.78a6.14,6.14,0,0,1,2.34,0Z"/><path class="cls-29" d="M194,21.52h-2.28c-.49-.25-.47-.51,0-.76h1.93l.24.07a.4.4,0,0,0,.11,0Z"/><path class="cls-29" d="M194,7.69h-2.28c-.49-.26-.47-.51,0-.77h1.93l.24.07H194Z"/><path class="cls-23" d="M18.26,8.46V7l.15,0h4.42c.52.23.29.51.33.77s.19.53-.33.77a10.73,10.73,0,0,1-2.29.11A10.67,10.67,0,0,1,18.26,8.46Z"/><path class="cls-23" d="M191.74,6.92V8.46a10.67,10.67,0,0,1-2.28.11,10.8,10.8,0,0,1-2.29-.11V7l.15,0Z"/><path class="cls-23" d="M18.26,22.29v-1.5l.15,0h4.42c.52.23.29.5.33.76s.19.54-.33.77a10.12,10.12,0,0,1-2.29.11A10.06,10.06,0,0,1,18.26,22.29Z"/><path class="cls-23" d="M191.74,20.76v1.53a10.06,10.06,0,0,1-2.28.11,10.18,10.18,0,0,1-2.29-.11v-1.5l.15,0Z"/><path class="cls-29" d="M22.83,7.69V6.92H25l.09,0,.06,0v.72A5.48,5.48,0,0,1,22.83,7.69Z"/><path class="cls-32" d="M22.83,7.69h2.28v.72l-.06,0-.09,0H22.83Z"/><path class="cls-29" d="M18.26,8.46h2.28c.48.25.48.51,0,.76H18.32l-.06,0Z"/><path class="cls-32" d="M20.54,9.22V8.46h2.29c0,.24,0,.48,0,.72l-.05,0H20.54Z"/><path class="cls-29" d="M187.17,8.46h2.29c.48.25.48.51,0,.76h-2.23l0,0C187.17,8.94,187.17,8.7,187.17,8.46Z"/><path class="cls-32" d="M189.46,9.22V8.46h2.28v.72l-.06,0h-2.22Z"/><path class="cls-29" d="M22.83,21.52v-.76h2.22s.06,0,.06,0v.72A5.16,5.16,0,0,1,22.83,21.52Z"/><path class="cls-32" d="M22.83,21.52h2.28v.72s0,0-.06,0l-.09,0H22.83Z"/><path class="cls-29" d="M18.26,22.29h2.28c.48.26.48.52,0,.77H18.41l-.09,0-.06,0Z"/><path class="cls-32" d="M20.54,23.06v-.77h2.29c0,.24,0,.48,0,.72l-.05,0-.09,0Z"/><path class="cls-29" d="M187.17,22.29h2.29c.48.26.48.52,0,.77h-2.14l-.09,0,0,0C187.17,22.77,187.17,22.53,187.17,22.29Z"/><path class="cls-32" d="M189.46,23.06v-.77h2.28V23l-.06,0-.09,0Z"/></svg>